# xmcd
#
# Track frame offsets: 
#        150
#        12537
#        23927
#        34986
#        50844
#        63242
#        77020
#        98677
#        112434
#        122532
#        135492
#        150514
#        161013
#        171895
#        183590
#        196450
#        209054
#        222515
#
# Disc length: 3142 seconds
#
# Revision: 0
# Processed by: cddbd v1.5.1PL0 Copyright (c) Steve Scherf et al.
# Submitted via: ExactAudioCopy v0.95a5
#
DISCID=0c0c4412
DTITLE=Elmore James - Dust My Broom
DYEAR=2003
DGENRE=Blues
TTITLE0=Dust My Broom
TTITLE1=Fine Little Mama
TTITLE2=Look On Younder Wall
TTITLE3=I Need You
TTITLE4=Th E Sky Is Crying
TTITLE5=It Hurts Me Too
TTITLE6=Something Inside Of Me
TTITLE7=The Twelve Year Old Boy
TTITLE8=Sunnyland Train
TTITLE9=Baby Please Set A Date
TTITLE10=Everyday I Have The Blues
TTITLE11=Take Me Where You Go
TTITLE12=Coming Home
TTITLE13=Knockin' At Your Door
TTITLE14=Held My Baby Last Night
TTITLE15=Shake Your Moneymaker
TTITLE16=Standing At The Crossroads
TTITLE17=Stranger Blues
EXTD=
EXTT0=
EXTT1=
EXTT2=
EXTT3=
EXTT4=
EXTT5=
EXTT6=
EXTT7=
EXTT8=
EXTT9=
EXTT10=
EXTT11=
EXTT12=
EXTT13=
EXTT14=
EXTT15=
EXTT16=
EXTT17=
PLAYORDER=
